<svg width="284" height="243" viewBox="0 0 284 243" fill="none" xmlns="http://www.w3.org/2000/svg">
<g opacity="0.88" clip-path="url(#clip0_161_1307)">
<path d="M199.384 111.94C198.855 111.059 198.157 110.291 197.33 109.68C196.502 109.069 195.562 108.627 194.564 108.38L195.665 103.964C195.917 102.953 195.968 101.903 195.813 100.872C195.659 99.842 195.303 98.8519 194.764 97.9586C194.226 97.0654 193.517 96.2866 192.678 95.6667C191.838 95.0469 190.884 94.5982 189.871 94.3463L190.701 91.0183L192.536 91.476C193.322 91.6717 194.152 91.5483 194.846 91.1328C195.539 90.7172 196.038 90.0437 196.233 89.2603C196.429 88.4769 196.304 87.6478 195.887 86.9554C195.47 86.2631 194.795 85.7641 194.009 85.5683L192.174 85.1107L192.749 82.8018L191.842 82.5754L191.266 84.8843L189.075 84.3381C188.29 84.1423 187.459 84.2658 186.766 84.6813C186.073 85.0968 185.573 85.7703 185.378 86.5537C185.183 87.3371 185.307 88.1662 185.724 88.8586C186.141 89.551 186.817 90.0499 187.602 90.2457L189.793 90.7919L188.963 94.1199L183.308 92.7101C182.771 92.5759 182.212 92.5487 181.664 92.6301C181.115 92.7116 180.589 92.9 180.114 93.1846C179.639 93.4692 179.225 93.8445 178.896 94.289C178.566 94.7334 178.328 95.2384 178.194 95.775L176.193 103.8L174.886 103.474C172.868 102.97 170.771 102.869 168.715 103.174C166.658 103.48 164.683 104.187 162.901 105.254C161.119 106.322 159.566 107.73 158.33 109.398C157.095 111.065 156.2 112.96 155.698 114.973L153.024 125.697C150.032 125.804 147.123 126.706 144.6 128.312C142.076 129.917 140.029 132.167 138.67 134.829L131.935 133.15L133.627 126.36L129.544 125.342L130.256 122.487L132.763 123.111C133.548 123.307 134.378 123.184 135.072 122.768C135.765 122.353 136.264 121.679 136.46 120.896C136.655 120.112 136.53 119.283 136.113 118.591C135.696 117.899 135.021 117.4 134.236 117.204L131.729 116.579L132.196 114.704L131.289 114.478L130.822 116.353L129.301 115.974C128.516 115.778 127.686 115.901 126.992 116.317C126.299 116.732 125.8 117.406 125.604 118.189C125.409 118.973 125.534 119.802 125.951 120.494C126.368 121.186 127.043 121.685 127.828 121.881L129.349 122.26L128.634 125.128C127.576 124.928 126.483 125.139 125.577 125.718C124.671 126.297 124.022 127.2 123.761 128.241L123.082 130.968C119.105 130.207 114.989 130.994 111.579 133.168C108.169 135.342 105.724 138.737 104.747 142.657L89.1013 205.407L130.572 215.747L130.572 215.748L173.214 226.379L200.272 117.856C200.523 116.86 200.573 115.825 200.42 114.81C200.268 113.795 199.916 112.819 199.384 111.94Z" fill="#F2F2F2"/>
<path d="M114.176 88.3353L115.276 83.9219C115.528 82.9114 115.578 81.861 115.424 80.8308C115.269 79.8005 114.912 78.8106 114.374 77.9174C113.836 77.0243 113.127 76.2455 112.288 75.6255C111.449 75.0054 110.495 74.5563 109.482 74.3038L110.558 69.9907L112.354 70.4384C113.139 70.6342 113.969 70.5107 114.663 70.0952C115.356 69.6797 115.855 69.0062 116.051 68.2228C116.246 67.4394 116.121 66.6103 115.704 65.9179C115.287 65.2255 114.612 64.7265 113.827 64.5308L112.031 64.083L112.36 62.7611L111.453 62.5349L111.123 63.8568L108.892 63.3005C108.107 63.1047 107.276 63.2282 106.583 63.6437C105.89 64.0592 105.391 64.7328 105.195 65.5162C105 66.2996 105.125 67.1287 105.542 67.8211C105.959 68.5134 106.634 69.0124 107.419 69.2082L109.65 69.7644L108.575 74.0776L102.917 72.6669C102.379 72.5328 101.82 72.5057 101.272 72.5872C100.724 72.6687 100.197 72.8571 99.722 73.1418C99.247 73.4265 98.8329 73.8019 98.5034 74.2464C98.1739 74.691 97.9354 75.1961 97.8016 75.7328L95.8016 83.7541L94.496 83.4285C90.4203 82.4124 86.1088 83.0532 82.5099 85.21C78.9111 87.3668 76.3196 90.863 75.3058 94.9294L72.8289 104.864C69.9692 105.33 67.2799 106.527 65.0226 108.339C62.7652 110.15 61.0167 112.514 59.9471 115.201L51.5445 113.106L53.2374 106.316L49.1542 105.298L50.1116 101.459L51.5931 101.828C52.3783 102.024 53.2089 101.9 53.9022 101.485C54.5955 101.069 55.0948 100.396 55.2901 99.6122C55.4854 98.8288 55.3608 97.9997 54.9437 97.3073C54.5266 96.615 53.8512 96.116 53.066 95.9202L51.5846 95.5509L51.8064 94.661L50.899 94.4348L50.6772 95.3246L48.1317 94.69C47.3465 94.4942 46.5159 94.6177 45.8226 95.0332C45.1292 95.4487 44.63 96.1222 44.4347 96.9056C44.2394 97.689 44.3639 98.5181 44.781 99.2105C45.1981 99.9029 45.8736 100.402 46.6588 100.598L49.2042 101.232L48.2438 105.084C47.1863 104.885 46.0927 105.096 45.1869 105.675C44.2812 106.254 43.6317 107.156 43.3714 108.198L42.6915 110.925C38.715 110.163 34.5989 110.951 31.189 113.124C27.779 115.298 25.3342 118.694 24.3567 122.613L8.71123 185.364L92.8269 206.336L119.885 97.812C120.133 96.8164 120.183 95.7814 120.03 94.7663C119.877 93.7512 119.526 92.7758 118.996 91.8958C118.466 91.0158 117.767 90.2484 116.94 89.6375C116.113 89.0266 115.174 88.5841 114.176 88.3353Z" fill="#F2F2F2"/>
<path d="M42.0515 139.587L47.7227 141.001L48.8513 136.474L43.1801 135.06L42.0515 139.587Z" fill="white"/>
<path d="M32.7508 137.268L38.4219 138.682L39.5505 134.156L33.8794 132.742L32.7508 137.268Z" fill="white"/>
<path d="M39.1726 151.129L44.8438 152.543L45.9723 148.017L40.3012 146.603L39.1726 151.129Z" fill="white"/>
<path d="M29.8719 148.811L35.543 150.225L36.6716 145.698L31.0005 144.284L29.8719 148.811Z" fill="white"/>
<path d="M36.2957 162.672L41.9668 164.086L43.0954 159.56L37.4243 158.146L36.2957 162.672Z" fill="white"/>
<path d="M26.9949 160.354L32.666 161.768L33.7946 157.241L28.1235 155.827L26.9949 160.354Z" fill="white"/>
<path d="M24.116 171.896L29.7871 173.31L30.9157 168.783L25.2446 167.37L24.116 171.896Z" fill="white"/>
<path d="M21.239 183.439L26.9102 184.853L28.0388 180.326L22.3676 178.913L21.239 183.439Z" fill="white"/>
<path d="M78.2017 135.018L96.5762 139.599L96.9147 138.241L78.5403 133.66L78.2017 135.018Z" fill="white"/>
<path d="M76.1139 143.392L94.4883 147.973L94.8269 146.615L76.4524 142.034L76.1139 143.392Z" fill="white"/>
<path d="M74.026 151.766L92.4004 156.347L92.739 154.989L74.3645 150.408L74.026 151.766Z" fill="white"/>
<path d="M103.423 80.2452L109.094 81.6592L110.222 77.1326L104.551 75.7187L103.423 80.2452Z" fill="white"/>
<path d="M119.563 171.173L125.234 172.587L126.363 168.061L120.692 166.647L119.563 171.173Z" fill="white"/>
<path d="M110.262 168.854L115.934 170.268L117.062 165.742L111.391 164.328L110.262 168.854Z" fill="white"/>
<path d="M116.686 182.716L122.357 184.13L123.486 179.603L117.815 178.189L116.686 182.716Z" fill="white"/>
<path d="M107.386 180.397L113.057 181.811L114.185 177.284L108.514 175.871L107.386 180.397Z" fill="white"/>
<path d="M113.807 194.259L119.479 195.673L120.607 191.146L114.936 189.732L113.807 194.259Z" fill="white"/>
<path d="M104.507 191.94L110.178 193.354L111.306 188.827L105.635 187.413L104.507 191.94Z" fill="white"/>
<path d="M110.93 205.801L116.602 207.215L117.73 202.689L112.059 201.275L110.93 205.801Z" fill="white"/>
<path d="M101.63 203.483L107.301 204.896L108.429 200.37L102.758 198.956L101.63 203.483Z" fill="white"/>
<path d="M183.813 100.289L189.484 101.703L190.613 97.1766L184.942 95.7626L183.813 100.289Z" fill="white"/>
<path d="M199.752 119.943L185.783 116.46L185.047 119.414L199.016 122.897L199.752 119.943Z" fill="white"/>
<path d="M197.543 128.805L183.574 125.322L182.838 128.276L196.807 131.759L197.543 128.805Z" fill="white"/>
<path d="M195.334 137.666L181.365 134.184L180.629 137.137L194.598 140.62L195.334 137.666Z" fill="white"/>
<path d="M193.123 146.528L179.154 143.045L178.418 145.999L192.387 149.482L193.123 146.528Z" fill="white"/>
<path d="M190.914 155.39L176.945 151.907L176.209 154.861L190.178 158.343L190.914 155.39Z" fill="white"/>
<path d="M188.705 164.251L174.736 160.768L174 163.722L187.969 167.205L188.705 164.251Z" fill="white"/>
<path d="M103.725 160.897L106.266 164.377L121.214 156.047L117.463 150.911L103.725 160.897Z" fill="#FFB6B6"/>
<path d="M113.447 162.358L107.817 155.983L132.771 132.137C121.676 121.381 115.044 109.981 110.279 98.0874C108.653 94.0692 108.133 89.7347 112.219 88.0433C112.411 87.9642 112.604 87.8925 112.801 87.8281C117.345 86.3629 115.154 89.7106 120.997 89.2548L124.577 95.6565L132.557 108.503L147.664 124.419C150.703 127.62 150.498 132.708 147.208 135.784C147.035 135.947 146.854 136.101 146.667 136.249L113.447 162.358Z" fill="#010B13"/>
<path d="M104.676 158.816L109.267 164.375L106.774 166.187L106.988 174.489C106.999 174.899 106.878 175.301 106.643 175.638C106.408 175.974 106.072 176.226 105.683 176.358C105.293 176.49 104.872 176.494 104.48 176.37C104.089 176.246 103.747 176 103.504 175.668L98.4519 168.749L100.047 165.765L97.2411 167.091L95.3361 164.483L104.676 158.816Z" fill="#010B13"/>
<path d="M103.873 128.572L66.0762 132.302L66.3823 135.359L104.18 131.63L103.873 128.572Z" fill="#010B13"/>
<path d="M100.047 178.502L92.9457 168.456C92.4516 167.757 92.256 166.89 92.4017 166.048C92.5474 165.205 93.0225 164.455 93.7227 163.962C94.4228 163.47 95.2905 163.275 96.1351 163.421C96.9797 163.567 97.7319 164.042 98.2265 164.741L105.328 174.787C105.573 175.133 105.747 175.524 105.841 175.938C105.934 176.351 105.945 176.779 105.873 177.196C105.801 177.614 105.648 178.013 105.421 178.371C105.194 178.729 104.899 179.039 104.552 179.283C104.205 179.527 103.814 179.7 103.4 179.793C102.986 179.886 102.557 179.896 102.139 179.824C101.72 179.751 101.32 179.597 100.961 179.37C100.602 179.144 100.292 178.848 100.047 178.502Z" fill="#010B13"/>
<path d="M173.865 101.299C173.244 101.353 172.619 101.271 172.034 101.058C171.448 100.845 170.916 100.506 170.476 100.066C170.035 99.6262 169.696 99.0952 169.484 98.5106C169.271 97.926 169.189 97.3021 169.244 96.6828L139.006 80.3273L145.65 76.1252L174.173 92.8121C175.21 92.9742 176.151 93.51 176.819 94.3181C177.487 95.1261 177.834 96.1502 177.796 97.1962C177.758 98.2423 177.337 99.2378 176.613 99.9939C175.888 100.75 174.91 101.214 173.865 101.299Z" fill="#FFB6B6"/>
<path d="M134.395 50.5229C134.395 50.5229 128.99 49.8204 127.578 55.8837C126.167 61.9471 135.614 78.9167 137.054 81.6972C138.495 84.4778 158.254 90.6414 158.254 90.6414L165.887 86.7084L148.873 75.8355L134.395 50.5229Z" fill="#F9E8E8"/>
<path d="M116.671 76.215L114.103 81.4654C114.103 81.4654 110.795 85.5433 110.906 86.8809C111.015 88.2108 128.021 99.5323 128.021 99.5323C128.021 99.5323 131.694 91.6149 135.762 86.6707L116.671 76.215Z" fill="#FFB6B6"/>
<path d="M154.872 177.874L142.809 180.325C141.969 180.495 141.095 180.326 140.38 179.854C139.665 179.382 139.166 178.646 138.994 177.807C138.823 176.969 138.991 176.097 139.464 175.384C139.936 174.67 140.673 174.174 141.513 174.003L153.576 171.552C154.415 171.381 155.289 171.551 156.004 172.023C156.72 172.495 157.218 173.231 157.39 174.069C157.562 174.908 157.393 175.779 156.921 176.493C156.449 177.206 155.712 177.703 154.872 177.874Z" fill="#010B13"/>
<path d="M185.54 229.094C178.806 227.415 172.72 223.782 168.051 218.653C163.383 213.524 160.342 207.131 159.312 200.281C158.283 193.431 159.312 186.433 162.268 180.171C165.225 173.909 169.977 168.664 175.923 165.101C181.87 161.537 188.743 159.814 195.674 160.15C202.606 160.486 209.284 162.866 214.864 166.988C220.445 171.11 224.677 176.79 227.025 183.309C229.373 189.829 229.733 196.894 228.058 203.613C225.802 212.617 220.059 220.356 212.088 225.133C204.117 229.91 194.57 231.335 185.54 229.094ZM201.695 164.299C195.585 162.776 189.161 163.094 183.236 165.214C177.31 167.335 172.15 171.162 168.407 176.211C164.665 181.261 162.508 187.306 162.209 193.583C161.91 199.859 163.483 206.085 166.729 211.474C169.975 216.862 174.748 221.17 180.445 223.854C186.141 226.537 192.505 227.476 198.732 226.55C204.959 225.625 210.77 222.877 215.428 218.654C220.087 214.431 223.385 208.924 224.905 202.827C226.933 194.652 225.629 186.005 221.278 178.782C216.927 171.559 209.884 166.351 201.695 164.299Z" fill="#010B13"/>
<path d="M193.728 202.645C196.367 203.303 199.04 201.702 199.696 199.068C200.353 196.434 198.745 193.766 196.106 193.108C193.466 192.45 190.794 194.051 190.137 196.685C189.481 199.318 191.088 201.987 193.728 202.645Z" fill="#010B13"/>
<path d="M45.4941 194.668C39.1133 193.078 33.3465 189.635 28.923 184.775C24.4994 179.915 21.6178 173.857 20.6424 167.367C19.667 160.876 20.6418 154.245 23.4434 148.312C26.245 142.378 30.7476 137.409 36.3818 134.032C42.0161 130.656 48.5289 129.023 55.0967 129.342C61.6645 129.66 67.9923 131.915 73.2799 135.821C78.5676 139.727 82.5775 145.109 84.8027 151.286C87.0279 157.463 87.3683 164.158 85.7811 170.524C83.6437 179.056 78.2017 186.389 70.649 190.915C63.0964 195.442 54.0498 196.791 45.4941 194.668ZM60.8017 133.273C55.0118 131.829 48.9248 132.131 43.3104 134.14C37.6961 136.149 32.8066 139.775 29.2602 144.56C25.7138 149.344 23.6699 155.072 23.3868 161.02C23.1037 166.967 24.5943 172.867 27.6699 177.972C30.7456 183.078 35.2682 187.16 40.6659 189.703C46.0636 192.246 52.0939 193.135 57.9943 192.258C63.8947 191.381 69.4001 188.777 73.8144 184.776C78.2287 180.775 81.3536 175.556 82.7939 169.779C84.7158 162.033 83.4798 153.84 79.3569 146.996C75.234 140.152 68.5609 135.217 60.8017 133.273Z" fill="#010B13"/>
<path d="M52.3293 167.249C54.969 167.907 57.6411 166.306 58.2978 163.672C58.9544 161.038 57.3469 158.37 54.7072 157.712C52.0676 157.054 49.3954 158.655 48.7388 161.289C48.0822 163.922 49.6897 166.591 52.3293 167.249Z" fill="#010B13"/>
<path d="M117.111 183.576C120.172 184.339 123.271 182.482 124.032 179.428C124.793 176.374 122.929 173.28 119.868 172.517C116.808 171.753 113.709 173.61 112.947 176.664C112.186 179.718 114.05 182.813 117.111 183.576Z" fill="#010B13"/>
<path d="M54.8309 162.448L53.1596 159.866L102.387 128.159L176.982 124.738L196.395 193.662L193.432 194.49L174.681 127.919L103.361 131.19L54.8309 162.448Z" fill="#010B13"/>
<path d="M114.186 175.251L84.8301 167.932L84.087 170.912L113.443 178.231L114.186 175.251Z" fill="#010B13"/>
<path d="M108.253 114.465L105.266 113.72L101.381 129.302L104.368 130.047L108.253 114.465Z" fill="#010B13"/>
<path d="M175.128 93.6874L172.057 93.8945L174.295 126.432L177.366 126.225L175.128 93.6874Z" fill="#010B13"/>
<path d="M104.557 128.012L101.604 128.875L115.695 176.708L118.648 175.844L104.557 128.012Z" fill="#010B13"/>
<path d="M183.656 154.188L122.166 176.849L123.235 179.731L184.725 157.07L183.656 154.188Z" fill="#010B13"/>
<path d="M112.027 117.379L100.078 114.4C99.2461 114.192 98.5306 113.664 98.0887 112.93C97.6468 112.197 97.5148 111.318 97.7217 110.488C97.9286 109.658 98.4576 108.945 99.1921 108.505C99.9266 108.064 100.807 107.934 101.639 108.141L113.587 111.12C114.419 111.327 115.135 111.856 115.577 112.59C116.018 113.323 116.15 114.202 115.944 115.032C115.737 115.861 115.208 116.575 114.473 117.015C113.739 117.455 112.859 117.586 112.027 117.379Z" fill="#F9E8E8"/>
<path d="M178.673 98.2236L166.724 95.2444C165.893 95.037 165.177 94.5084 164.735 93.7749C164.293 93.0413 164.161 92.163 164.368 91.333C164.575 90.503 165.104 89.7895 165.839 89.3492C166.573 88.909 167.453 88.7782 168.285 88.9856L180.234 91.9648C181.066 92.1722 181.781 92.7008 182.223 93.4344C182.665 94.1679 182.797 95.0463 182.59 95.8762C182.383 96.7062 181.854 97.4198 181.12 97.86C180.385 98.3002 179.505 98.431 178.673 98.2236Z" fill="#F9E8E8"/>
<path d="M230.037 220.507L232.29 212.927C236.326 211.915 240.549 211.903 244.593 212.889C237.904 216.038 236.419 224.952 231.13 230.109C229.468 231.706 227.467 232.908 225.276 233.626C223.084 234.345 220.758 234.562 218.469 234.262L213.109 235.944C213.356 232.234 214.406 228.623 216.186 225.36C217.967 222.096 220.435 219.257 223.422 217.038C225.11 215.81 226.947 214.799 228.888 214.029C229.272 217.238 230.037 220.507 230.037 220.507Z" fill="#F2F2F2"/>
<path d="M237.47 242.218C237.459 242.264 237.438 242.308 237.41 242.347C237.381 242.385 237.345 242.418 237.304 242.443C237.263 242.468 237.217 242.484 237.169 242.491C237.122 242.498 237.073 242.495 237.026 242.484L0.354401 183.475C0.260123 183.451 0.179024 183.391 0.128943 183.308C0.0788614 183.225 0.0639002 183.125 0.0873527 183.031C0.110805 182.937 0.170747 182.856 0.253995 182.807C0.337243 182.757 0.436979 182.742 0.531257 182.765L237.203 241.774C237.25 241.786 237.294 241.806 237.333 241.835C237.371 241.864 237.404 241.899 237.429 241.941C237.454 241.982 237.47 242.028 237.477 242.075C237.484 242.123 237.482 242.171 237.47 242.218Z" fill="#CCCCCC"/>
<path d="M144.056 48.2201C149.068 48.6034 153.439 44.8593 153.817 39.8574C154.196 34.8555 150.44 30.4899 145.427 30.1066C140.415 29.7233 136.045 33.4674 135.666 38.4694C135.287 43.4713 139.044 47.8368 144.056 48.2201Z" fill="#FFB6B6"/>
<path d="M230.619 104.508C235.024 105.606 239.483 102.934 240.579 98.5386C241.675 94.1436 238.992 89.6905 234.587 88.5922C230.182 87.4939 225.723 90.1664 224.627 94.5613C223.531 98.9563 226.214 103.41 230.619 104.508Z" fill="#FFB6B6"/>
<path d="M251.395 97.2333C251.353 96.441 251.079 95.678 250.609 95.0381C250.138 94.3982 249.49 93.9094 248.746 93.6317C248.729 93.6249 248.712 93.624 248.695 93.6186C248.674 93.6063 248.653 93.5954 248.63 93.586C245.1 92.2062 240.456 92.897 238.075 95.9681C237.83 95.371 237.443 94.8423 236.948 94.4276C236.452 94.0129 235.863 93.7247 235.231 93.5879C234.41 93.4401 233.563 93.5486 232.805 93.8986C232.048 94.2485 231.418 94.823 231 95.5438C230.952 95.6329 230.934 95.7348 230.949 95.8348C230.963 95.9349 231.009 96.0277 231.08 96.1C231.27 96.3638 231.519 96.5794 231.808 96.7298C232.435 97.035 233.068 97.329 233.706 97.6118C234.951 98.1637 236.214 98.6737 237.495 99.1419C240.093 100.093 242.755 100.864 245.46 101.45C246.361 101.645 247.23 101.83 248.147 101.641C248.817 101.496 249.436 101.18 249.945 100.723C250.428 100.283 250.807 99.7419 251.058 99.139C251.308 98.5361 251.423 97.8856 251.395 97.2333Z" fill="#F0F0F0"/>
<path d="M232.172 103.711C232.13 102.919 231.857 102.156 231.386 101.516C230.915 100.876 230.268 100.387 229.523 100.109C229.506 100.102 229.489 100.102 229.472 100.096C229.451 100.084 229.43 100.073 229.408 100.064C225.877 98.6838 221.233 99.3745 218.853 102.446C218.607 101.849 218.221 101.32 217.725 100.905C217.23 100.49 216.641 100.202 216.009 100.065C215.187 99.9176 214.34 100.026 213.583 100.376C212.825 100.726 212.195 101.301 211.777 102.021C211.729 102.11 211.712 102.212 211.726 102.312C211.74 102.412 211.786 102.505 211.857 102.578C212.047 102.841 212.297 103.057 212.585 103.207C213.213 103.512 213.845 103.806 214.484 104.089C215.729 104.641 216.991 105.151 218.272 105.619C220.871 106.571 223.532 107.342 226.237 107.928C227.138 108.123 228.008 108.308 228.925 108.119C229.594 107.973 230.213 107.657 230.723 107.201C231.205 106.76 231.585 106.219 231.835 105.616C232.086 105.014 232.2 104.363 232.172 103.711Z" fill="#F0F0F0"/>
<path d="M178.392 137.099L173.655 113.603L173.806 113.573C174.579 113.419 175.375 113.418 176.148 113.57C176.922 113.723 177.658 114.026 178.314 114.462C178.97 114.899 179.534 115.46 179.974 116.113C180.413 116.767 180.719 117.5 180.875 118.272L183.243 130.02C183.399 130.791 183.401 131.585 183.249 132.357C183.097 133.129 182.794 133.863 182.357 134.517C181.921 135.172 181.359 135.734 180.705 136.172C180.051 136.61 179.316 136.915 178.543 137.069L178.392 137.099Z" fill="#010B13"/>
<path d="M146.978 133.189C145.723 132.873 144.603 132.16 143.785 131.159C142.968 130.157 142.495 128.919 142.439 127.628L142.432 127.475L166.42 126.468L166.427 126.621C166.461 127.407 166.339 128.192 166.069 128.931C165.799 129.67 165.386 130.348 164.853 130.927C164.32 131.506 163.678 131.975 162.963 132.306C162.249 132.638 161.476 132.825 160.688 132.858L148.694 133.362C148.117 133.386 147.539 133.328 146.978 133.189Z" fill="#010B13"/>
<path d="M140.824 170.111L145.14 170.124L147.369 153.175L140.999 153.156L140.824 170.111Z" fill="#FFB6B6"/>
<path d="M140.077 164.902L147.159 163.534L147.567 166.587L154.979 170.369C155.345 170.556 155.642 170.854 155.826 171.221C156.01 171.588 156.072 172.004 156.003 172.408C155.933 172.812 155.736 173.184 155.44 173.468C155.144 173.752 154.765 173.935 154.358 173.988L145.859 175.111L143.99 172.284L143.822 175.38L140.618 175.803L140.077 164.902Z" fill="#010B13"/>
<path d="M148.82 156.332L138.856 159.358L137.733 124.467C122.763 120.599 109.31 115.465 99.2713 107.479C95.8665 104.789 95.3027 99.7795 98.012 96.2896C98.1387 96.1265 98.2713 95.9684 98.41 95.8153C101.629 92.2959 106.499 90.972 111.346 87.6887L128.43 99.3088L125.822 104.027L146.836 110.398C151.062 111.68 153.409 116.204 152.078 120.504C152.008 120.731 151.928 120.955 151.838 121.175L148.82 156.332Z" fill="#010B13"/>
<path d="M137.156 46.4093L142.185 50.8666C142.473 51.0735 142.689 51.3646 142.803 51.6995C142.917 52.0344 142.924 52.3964 142.822 52.7351L142.829 59.1225L145.337 71.6329C145.337 71.6329 145.233 77.9323 141.197 82.8981C137.16 87.8639 127.834 100.427 127.834 100.427C121.765 108.567 92.2987 93.7652 102.361 88.0608C103.559 87.382 110.937 80.9667 113.039 81.0164L124.876 54.348C125.489 52.9371 126.408 51.6795 127.566 50.6653C128.724 49.651 130.093 48.9054 131.575 48.4818C132.467 48.2355 133.258 48.1551 133.722 48.4124C134.789 48.9584 135.963 46.5315 137.156 46.4093Z" fill="#F9E8E8"/>
<path d="M178.152 95.8774C177.552 96.0444 176.923 96.0779 176.308 95.9757C175.694 95.8736 175.109 95.6382 174.595 95.2861C174.081 94.9341 173.65 94.4739 173.334 93.9381C173.017 93.4023 172.822 92.8039 172.762 92.1849L140.037 81.64L145.794 76.2919L176.896 87.4767C177.944 87.4463 178.968 87.8008 179.772 88.473C180.577 89.1452 181.107 90.0884 181.262 91.1239C181.417 92.1594 181.186 93.2153 180.613 94.0914C180.04 94.9675 179.164 95.603 178.152 95.8774Z" fill="#FFB6B6"/>
<path d="M130.025 53.1802C130.025 53.1802 124.584 53.479 124.311 59.6991C124.038 65.9191 136.442 80.8744 138.369 83.3446C140.297 85.8147 160.85 88.2573 160.85 88.2573L167.629 82.9928L148.908 75.4174L130.025 53.1802Z" fill="#F9E8E8"/>
<path d="M154.889 38.5966C153.392 38.9196 152.119 37.593 151.187 36.3572L151.517 36.8137C148.992 38.3151 147.351 40.95 146.211 43.657C145.071 46.361 144.332 49.2282 143.075 51.8832C141.818 54.5352 139.924 57.0491 137.227 58.2138C133.614 59.7737 129.419 58.618 125.824 57.0183C125.776 56.9962 125.731 56.9773 125.683 56.9552C127.391 54.2796 128.54 51.2866 129.06 48.1559C127.315 51.0016 124.929 53.4005 122.09 55.1616C119.758 53.8815 117.533 52.4153 115.438 50.7773C114.083 49.7156 112.672 48.3692 112.636 46.6504C112.595 44.9437 113.98 43.4938 115.536 42.7933C117.093 42.0928 118.833 41.9486 120.503 41.5834C122.169 41.221 123.894 40.5488 124.861 39.144C127.091 35.9133 124.131 30.8902 126.498 27.7563C127.665 26.2157 129.74 25.7213 131.652 25.4147C134.571 24.9495 137.519 24.6819 140.475 24.6136C143.069 24.5532 145.738 24.6618 148.125 25.6761C150.511 26.6904 152.588 28.7809 152.922 31.3511C154.295 32.2109 155.746 33.1567 156.405 34.6397C157.065 36.1196 156.474 38.2557 154.889 38.5966Z" fill="#010B13"/>
<path d="M75.907 179.767L25.502 167.2L25.3533 167.796L75.7583 180.363L75.907 179.767Z" fill="#010B13"/>
<path d="M74.4206 185.728L24.0156 173.16L23.867 173.756L74.272 186.324L74.4206 185.728Z" fill="#010B13"/>
<path d="M217.499 215.07L167.094 202.502L166.945 203.099L217.35 215.666L217.499 215.07Z" fill="#010B13"/>
<path d="M216.014 221.031L165.609 208.463L165.461 209.059L215.866 221.627L216.014 221.031Z" fill="#010B13"/>
<path d="M182.794 130.26C184.737 130.047 186.047 127.482 185.72 124.531C185.392 121.58 183.551 119.359 181.608 119.572C179.665 119.785 178.355 122.35 178.683 125.301C179.01 128.252 180.851 130.473 182.794 130.26Z" fill="#F9E8E8"/>
</g>
<defs>
<clipPath id="clip0_161_1307">
<rect width="244.65" height="189" fill="white" transform="translate(45.7227) rotate(14)"/>
</clipPath>
</defs>
</svg>
