<svg width="372" height="316" viewBox="0 0 372 316" fill="none" xmlns="http://www.w3.org/2000/svg">
<g opacity="0.85">
<path d="M250.401 103.782C248.644 97.4683 246.385 90.627 240.811 87.268C234.356 83.3783 226.002 85.6117 218.758 88.075C197.094 95.4417 175.827 103.998 155.053 113.706L155.013 113.923L195.187 121.401C204.863 123.202 214.89 124.996 224.534 122.634C228.194 121.738 231.934 120.241 235.585 121.017C240.121 121.98 243.153 126.158 245.31 130.26C258.063 154.524 255.046 185.786 270.67 208.251C266.685 172.885 259.907 137.952 250.401 103.782Z" fill="#F2F2F2"/>
<path d="M314.115 289.916L312.316 289.449C302.347 264.82 293.49 239.756 285.745 214.257C280.332 196.464 275.48 178.499 271.189 160.363C270.936 159.295 270.685 158.226 270.435 157.156C268.675 149.595 267.011 142.011 265.444 134.405C264.055 127.67 262.744 120.918 261.511 114.15C261.16 112.216 260.831 110.283 260.509 108.343C259.745 103.786 259.027 99.2144 258.147 94.6845C257.261 90.1079 256.032 85.2625 253.466 81.3308C253.137 80.8199 252.783 80.327 252.403 79.8539C251.974 79.3137 251.507 78.8051 251.006 78.3319C250.956 78.2822 250.904 78.2362 250.854 78.1863C249.628 77.0355 248.17 76.1615 246.574 75.6207C243.246 74.5172 239.728 75.1242 236.359 75.9037C230.672 77.2322 225.019 78.7309 219.399 80.4C200.722 85.9642 182.548 93.2033 165.098 102.029L164.965 102.096C142.223 113.566 120.837 127.642 101.244 144.037C100.641 144.546 99.7913 143.688 100.398 143.182C102.779 141.18 105.189 139.216 107.627 137.288C125.809 122.904 145.414 110.462 166.114 100.172C168.431 99.0181 170.762 97.8923 173.108 96.7952C184.631 91.3929 196.443 86.6623 208.483 82.6275C212.171 81.3902 215.877 80.2238 219.601 79.1282C222.07 78.3969 224.546 77.6951 227.03 77.0228C230.171 76.1748 233.32 75.3475 236.488 74.6311C239.596 73.922 242.829 73.4028 245.946 74.1609C248.193 74.6998 250.252 75.8162 251.922 77.4019C251.971 77.4515 252.028 77.4987 252.076 77.5527C253.091 78.545 253.979 79.6596 254.722 80.8721C258.061 86.2604 259.244 93.6624 260.183 99.3519C260.654 102.223 261.143 105.086 261.649 107.941C263.542 118.784 265.638 129.587 267.934 140.35C269.164 146.096 270.449 151.834 271.79 157.563C271.992 158.452 272.202 159.342 272.414 160.228C277.293 180.807 282.893 201.183 289.213 221.356C296.719 245.309 304.73 267.092 314.115 289.916Z" fill="#E4E4E4"/>
<path d="M167.41 177.698C167.41 177.698 164.001 182.013 164.295 182.832C164.59 183.651 158.979 178.977 158.979 178.977C158.979 178.977 162.388 174.661 162.548 174.084C162.708 173.506 167.41 177.698 167.41 177.698Z" fill="#FFB9B9"/>
<path d="M220.433 263.625C220.433 263.625 221.686 259.807 225.302 261.227L220.433 263.625Z" fill="#010B13"/>
<path d="M220.36 259.679C221.393 259.947 222.466 259.318 222.755 258.273C223.044 257.228 222.441 256.164 221.407 255.896C220.373 255.628 219.301 256.257 219.012 257.302C218.722 258.347 219.326 259.411 220.36 259.679Z" fill="#F9E8E8"/>
<path d="M220.244 261.012L219.721 260.876L218.697 264.598L219.22 264.735L220.244 261.012Z" fill="#010B13"/>
<path d="M123.375 116.665C123.114 117.609 122.825 118.538 122.507 119.45C120.688 124.716 117.902 129.609 114.296 133.872C114.267 133.909 114.236 133.943 114.208 133.976C114.04 134.174 113.87 134.371 113.697 134.564C112.644 135.761 111.528 136.901 110.354 137.978C104.984 142.928 98.5118 146.498 91.5102 148.371C84.5087 150.244 77.1932 150.363 70.2103 148.718L63.8987 173.165L70.1583 171.676L70.6144 173.802L63.2842 175.546L51.5661 220.952L51.408 221.558L46.9268 221.413L47.1033 220.808L68.577 148.297C63.0137 146.765 57.8321 144.131 53.3331 140.546C48.8341 136.961 45.1073 132.498 42.3691 127.415C42.1798 127.068 41.9959 126.712 41.817 126.361C41.8086 126.346 41.8031 126.332 41.7967 126.321C39.5581 121.931 38.0807 117.176 37.4266 112.257C37.4544 112.315 37.486 112.371 37.5139 112.429C36.0449 101.279 38.8843 89.894 45.4502 80.6072C52.0161 71.3204 61.8113 64.835 72.8287 62.4801C72.9954 62.444 73.1643 62.4118 73.331 62.3757C84.1872 60.1981 95.3731 62.1857 104.671 67.9447C113.97 73.7036 120.702 82.8136 123.533 93.4688C123.67 93.9736 123.795 94.4851 123.91 94.9972C125.532 102.113 125.348 109.562 123.375 116.665Z" fill="#F2F2F2"/>
<path d="M112.521 134.116C143.235 142.083 175.099 123.378 183.69 92.3359C192.282 61.2942 174.348 29.6711 143.634 21.7036C112.92 13.7362 81.0567 32.4416 72.4652 63.4833C63.8738 94.525 81.8076 126.148 112.521 134.116Z" fill="#FFB6B6"/>
<path opacity="0.2" d="M97.4292 29.6288C77.4442 55.0567 81.4109 91.5111 106.291 111.052C115.73 118.466 127.313 122.663 139.404 123.049C151.495 123.435 163.482 119.991 173.674 113.204C153.689 138.633 117.318 143.407 92.4378 123.868C67.5572 104.329 63.5871 67.8738 83.5706 42.4456C87.4857 37.4635 92.166 33.1357 97.4289 29.631L97.4292 29.6288Z" fill="#010B13"/>
<path d="M88.4528 234.512L83.3011 231.443L83.4807 230.832L110.621 138.219L111.975 133.601L112.015 133.466L116.755 117.286L123.629 93.8332L123.629 93.8303L128.29 77.9329L128.443 77.973L124.001 95.3545L118.222 117.978L114.122 134.032L114.09 134.15L113.921 134.811L113.921 134.814L105.926 166.106L105.134 169.216L88.6109 233.889L88.4528 234.512Z" fill="#010B13"/>
<path d="M114.231 164.212L103.645 166.683L104.247 169.434L114.834 166.964L114.231 164.212Z" fill="#010B13"/>
<path d="M81.3788 244.674L55.0234 237.754L54.8585 238.357L81.2138 245.277L81.3788 244.674Z" fill="#CBCBCB"/>
<path d="M127.012 267.429L100.656 260.509L100.491 261.112L126.847 268.032L127.012 267.429Z" fill="#CBCBCB"/>
<path d="M204.314 279.539L177.959 272.619L177.794 273.222L204.149 280.142L204.314 279.539Z" fill="#CBCBCB"/>
<path d="M277.827 272.02L282.557 254.837C282.557 254.837 285.792 268.738 277.827 272.02Z" fill="#F1F1F1"/>
<path d="M199.184 252.479L189.836 237.546C189.836 237.546 202.335 244.346 199.184 252.479Z" fill="#F1F1F1"/>
<path d="M67.0462 222.156L71.7754 204.973C71.7754 204.973 75.0112 218.874 67.0462 222.156Z" fill="#F1F1F1"/>
<path d="M67.3969 222.244L58.0488 207.311C58.0488 207.311 70.5476 214.111 67.3969 222.244Z" fill="#F1F1F1"/>
<path d="M109.084 246.501L114.965 225.133C114.965 225.133 118.989 242.419 109.084 246.501Z" fill="#F1F1F1"/>
<path d="M109.521 246.61L97.8965 228.04C97.8965 228.04 113.439 236.496 109.521 246.61Z" fill="#F1F1F1"/>
<path d="M244.812 279.352L244.491 279.89L198.959 252.579L159.392 251.203L109.451 247.031L109.391 246.996L88.5883 234.631L83.3291 231.506L67.2674 221.957L51.8225 221.455L47.3071 221.308L37.4892 220.99L37.5233 220.371L47.4849 220.694L51.9819 220.84L67.455 221.342L67.5208 221.379L83.5124 230.884L88.7497 233.997L109.649 246.423L159.438 250.584L199.147 251.965L199.215 252.002L244.812 279.352Z" fill="#CBCBCB"/>
<path d="M205.319 76.6869L209.921 74.6215C207.09 73.5362 205.443 74.8368 204.598 75.9844C202.581 74.4337 199.748 75.0443 199.748 75.0443L206.509 79.7598C206.413 78.6359 206 77.5697 205.317 76.6862L205.319 76.6869Z" fill="#010B13"/>
<path d="M295.707 122.269L300.31 120.204C297.479 119.118 295.832 120.419 294.987 121.566C292.969 120.016 290.137 120.626 290.137 120.626L296.898 125.342C296.802 124.218 296.388 123.152 295.706 122.268L295.707 122.269Z" fill="#010B13"/>
<path d="M181.676 130.874L186.279 128.809C183.447 127.724 181.801 129.024 180.955 130.172C178.938 128.621 176.106 129.232 176.106 129.232L182.866 133.947C182.77 132.823 182.357 131.757 181.675 130.874L181.676 130.874Z" fill="#010B13"/>
<path d="M118.892 253.483L122.159 255.61L132.3 245.563L127.478 242.423L118.892 253.483Z" fill="#FFB9B9"/>
<path d="M148.436 264.572L152.394 265.6L156.405 253.882L150.52 252.547L148.436 264.572Z" fill="#FFB9B9"/>
<path d="M156.726 178.334L158.277 176.578L165.551 183.055L164.815 184.752L165.84 187.312C165.84 187.312 168.159 189.533 166.27 194.439L164.451 199.093L162.124 205.099L162.268 221.46L158.94 242.181L156.069 258.838L148.339 256.425L148.432 228.119L127.882 253.27L119.804 248.742L139.536 223.649L144.299 212.205C144.299 212.205 145.044 205.654 150.952 202.601L150.832 200.142L151.603 197.35L152.797 183.384L156.726 178.334Z" fill="#010B13"/>
<path opacity="0.2" d="M148.597 207.068L148.178 207.075L148.24 228.11L148.659 228.103L148.597 207.068Z" fill="#010B13"/>
<path d="M150.021 203.365L162.311 206.578L162.661 205.301L150.372 202.088L150.021 203.365Z" fill="#D6D6E3"/>
<path d="M162.108 207.335C162.383 207.407 162.761 206.901 162.953 206.206C163.145 205.511 163.078 204.89 162.804 204.819C162.529 204.747 162.151 205.253 161.959 205.948C161.767 206.643 161.834 207.264 162.108 207.335Z" fill="#D6D6E3"/>
<path d="M171.013 175.869C173.687 173.076 173.633 168.696 170.892 166.086C168.151 163.476 163.76 163.624 161.086 166.417C158.412 169.21 158.466 173.59 161.208 176.2C163.949 178.81 168.339 178.662 171.013 175.869Z" fill="#FFB9B9"/>
<path d="M156.434 166.09C159.685 166.934 163.058 164.953 163.968 161.667C164.878 158.381 162.979 155.033 159.727 154.189C156.476 153.346 153.103 155.326 152.193 158.612C151.283 161.899 153.182 165.247 156.434 166.09Z" fill="#010B13"/>
<path d="M150.786 157.529C150.335 158.259 150.037 159.071 149.912 159.916C149.786 160.76 149.835 161.617 150.057 162.433C150.278 163.25 150.666 164.007 151.197 164.659C151.727 165.31 152.389 165.841 153.14 166.217C153.891 166.594 154.714 166.808 155.559 166.847C156.404 166.885 157.251 166.747 158.047 166.441C158.843 166.135 159.571 165.667 160.185 165.068C160.799 164.469 161.285 163.751 161.613 162.959C160.793 164.284 159.515 165.261 158.031 165.697C156.548 166.133 154.967 165.995 153.604 165.311C152.241 164.628 151.194 163.448 150.672 162.006C150.15 160.564 150.191 158.966 150.786 157.529Z" fill="#010B13"/>
<path d="M172.167 170.734C171.914 172.317 171.149 173.784 169.993 174.907C168.836 176.03 167.351 176.746 165.768 176.944C164.185 177.142 162.592 176.811 161.237 176.003C159.881 175.194 158.839 173.954 158.271 172.472C157.703 170.991 157.641 169.353 158.094 167.811C158.548 166.268 159.492 164.909 160.78 163.942C162.068 162.976 163.629 162.456 165.219 162.464C166.81 162.473 168.343 163.008 169.579 163.988C171.005 163.34 172.366 164.009 173.262 165.314C174.275 166.79 174.453 167.669 174.967 169.796C173.915 169.679 173.218 170.853 172.167 170.734Z" fill="#010B13"/>
<path d="M142.173 184.454C141.698 186.462 140.762 190.415 140.707 190.615C140.649 190.825 141.883 197.732 142.419 200.706C142.458 200.916 142.492 201.106 142.523 201.272C142.564 201.503 142.671 201.715 142.829 201.884C142.988 202.053 143.193 202.172 143.419 202.226L148.984 203.564C149.29 203.638 149.614 203.59 149.89 203.43C150.166 203.269 150.372 203.009 150.466 202.704L157.898 178.212C157.923 178.132 157.931 178.047 157.923 177.964C157.914 177.881 157.889 177.8 157.849 177.727C157.809 177.654 157.755 177.591 157.69 177.54C157.625 177.489 157.55 177.452 157.469 177.431L150.328 175.577C150.027 175.498 149.707 175.508 149.407 175.604C149.106 175.699 148.837 175.878 148.63 176.119L143.219 182.404C142.711 182.995 142.352 183.698 142.173 184.454Z" fill="#F9E8E8"/>
<path d="M151.12 201.09C152.78 200.588 154.356 199.828 155.792 198.838C159.105 196.623 161.637 193.401 163.009 189.656C164.195 186.454 164.225 183.854 163.101 181.926C161.67 179.475 158.917 179.061 158.801 179.045L158.677 179.027L156.436 180.109L156.78 180.857L158.786 179.888C159.289 179.992 161.317 180.515 162.393 182.365C163.383 184.069 163.332 186.43 162.24 189.38C160.934 192.946 158.526 196.016 155.376 198.131C154.009 199.072 152.511 199.799 150.934 200.285L151.12 201.09Z" fill="#F9E8E8"/>
<path d="M143.281 188.968L143.154 189.22L152.369 193.788L152.496 193.537L143.281 188.968Z" fill="#010B13"/>
<path d="M153.593 176.477L148.711 191.845L148.969 191.924L153.852 176.556L153.593 176.477Z" fill="#010B13"/>
<path d="M142.155 184.428C141.681 186.434 140.749 190.382 140.694 190.582C140.636 190.792 141.866 197.691 142.4 200.662L143.869 186.188C143.925 185.631 143.834 185.072 143.604 184.568C143.375 184.065 143.015 183.635 142.563 183.322C142.381 183.673 142.244 184.044 142.155 184.428Z" fill="#010B13"/>
<path d="M148.822 217.299C148.688 216.972 148.628 216.618 148.646 216.262C148.663 215.906 148.758 215.557 148.924 215.238C149.09 214.92 149.322 214.64 149.604 214.42C149.887 214.199 150.212 214.042 150.559 213.96L151.563 208.464L155.018 208.192L153.492 215.936C153.576 216.527 153.443 217.133 153.115 217.641C152.788 218.148 152.289 218.521 151.715 218.689C151.14 218.857 150.528 218.809 149.995 218.553C149.463 218.297 149.046 217.851 148.824 217.3L148.822 217.299Z" fill="#FFB7B7"/>
<path d="M155.651 184.394C155.814 183.564 156.246 182.805 156.878 182.239C157.51 181.673 158.306 181.331 159.141 181.268C159.875 181.218 160.601 181.408 161.211 181.809C161.862 182.245 162.356 182.88 162.623 183.623C162.891 184.366 162.918 185.18 162.701 185.95L155.426 213.262L149.802 212.016L155.651 184.394Z" fill="#F2F2F2"/>
<path d="M152.233 264.229C152.233 264.229 149.203 263.483 148.698 263.204C148.193 262.926 146.135 267.533 147.686 268.19C149.236 268.847 155.801 270.618 155.801 270.618C155.801 270.618 161.067 271.41 160.996 269.918C160.924 268.427 154.469 264.274 154.469 264.274C154.469 264.274 153.93 262.326 152.233 264.229Z" fill="#010B13"/>
<path d="M121.938 254.897C121.938 254.897 119.246 253.339 118.839 252.931C118.432 252.523 115.2 256.39 116.503 257.452C117.806 258.514 123.598 262.038 123.598 262.038C123.598 262.038 128.418 264.259 128.758 262.803C129.099 261.347 124.065 255.56 124.065 255.56C124.065 255.56 124.083 253.534 121.938 254.897Z" fill="#010B13"/>
</g>
</svg>
