<svg width="300" height="262" viewBox="0 0 300 262" fill="none" xmlns="http://www.w3.org/2000/svg">
<g clip-path="url(#clip0_249_478)">
<path d="M49.7585 91.2073C49.0566 91.2781 48.3503 91.2946 47.6459 91.2566C47.5258 91.2434 47.4054 91.2781 47.3105 91.353C47.2157 91.4279 47.154 91.5371 47.1387 91.6571L45.7912 101.78C45.6875 102.514 45.3871 103.207 44.9218 103.785C44.5382 104.245 44.2531 104.778 44.0841 105.353C43.9151 105.928 43.8658 106.531 43.9394 107.125V124.32C43.9394 124.32 43.8525 126.613 45.6115 126.613C47.7168 126.878 49.8469 126.878 51.9522 126.613C51.9522 126.613 53.3606 126.346 53.3606 124.23V107.3C53.468 106.709 53.4459 106.102 53.2958 105.52C53.1457 104.939 52.8712 104.398 52.4912 103.933C52.0415 103.353 51.7508 102.666 51.6479 101.939L50.2482 91.6049C50.2323 91.4887 50.1729 91.3829 50.0819 91.309C49.9909 91.2352 49.8753 91.1988 49.7585 91.2073Z" fill="white"/>
<path d="M48.7757 127.102C47.7117 127.102 46.6487 127.036 45.5929 126.903C45.357 126.909 45.1224 126.866 44.9041 126.776C44.6857 126.687 44.4881 126.553 44.3238 126.383C43.608 125.639 43.6478 124.363 43.6498 124.31L43.6496 107.143C43.5749 106.512 43.6295 105.872 43.81 105.263C43.9905 104.654 44.2931 104.087 44.6994 103.599C45.1302 103.063 45.4082 102.421 45.5042 101.739L46.8515 91.6189C46.8778 91.4242 46.9787 91.2474 47.1328 91.126C47.287 91.0045 47.4823 90.948 47.6774 90.9683C48.3617 91.0044 49.0478 90.9879 49.7295 90.9187L49.7376 90.918C49.9278 90.9042 50.1162 90.9634 50.2644 91.0837C50.4126 91.204 50.5095 91.3763 50.5354 91.5656L51.9352 101.901C52.0314 102.577 52.3019 103.216 52.7201 103.755C53.1228 104.248 53.4145 104.822 53.5751 105.438C53.7357 106.055 53.7614 106.698 53.6505 107.325V124.231C53.6505 126.56 52.0226 126.895 52.0061 126.898C50.9346 127.034 49.8557 127.102 48.7757 127.102ZM47.6065 91.5453C47.5634 91.5432 47.5211 91.5573 47.4878 91.5847C47.4545 91.6122 47.4325 91.6511 47.4262 91.6938L46.0784 101.818C45.9676 102.606 45.6459 103.348 45.1474 103.967C44.7891 104.397 44.5225 104.896 44.3642 105.433C44.2059 105.97 44.1592 106.534 44.227 107.09L44.2292 107.125V124.321C44.2287 124.342 44.1979 125.417 44.7427 125.982C44.8554 126.097 44.991 126.187 45.1408 126.245C45.2905 126.304 45.4509 126.331 45.6116 126.323L45.6477 126.325C47.729 126.587 49.8348 126.587 51.9161 126.325C51.9436 126.319 53.0709 126.061 53.0709 124.231L53.0755 107.248C53.1759 106.698 53.1555 106.134 53.0159 105.593C52.8763 105.053 52.6208 104.549 52.2671 104.117C51.7843 103.496 51.472 102.759 51.3611 101.98L49.9611 91.6439C49.955 91.6015 49.9333 91.563 49.9002 91.5357C49.8672 91.5085 49.8252 91.4946 49.7825 91.4967C49.0674 91.5684 48.348 91.585 47.6304 91.5466C47.6224 91.5458 47.6145 91.5453 47.6065 91.5453Z" fill="#FFB6B6"/>
<path d="M47.6319 107.433H49.7677C50.617 107.433 51.4315 107.77 52.032 108.372C52.6325 108.973 52.9699 109.789 52.9699 110.639V118.687C52.9699 119.538 52.6325 120.353 52.032 120.955C51.4315 121.556 50.617 121.894 49.7677 121.894H47.6319C46.7826 121.894 45.9681 121.556 45.3676 120.955C44.7671 120.353 44.4297 119.538 44.4297 118.687V110.639C44.4297 110.218 44.5125 109.801 44.6734 109.412C44.8344 109.023 45.0702 108.67 45.3676 108.372C45.665 108.074 46.018 107.838 46.4065 107.677C46.795 107.516 47.2114 107.433 47.6319 107.433Z" fill="#512100"/>
<path d="M8.36646 255.24H15.3296L18.6423 228.344L8.36523 228.344L8.36646 255.24Z" fill="#9F616A"/>
<path d="M6.58984 252.963L20.3028 252.963H20.3034C22.621 252.963 24.8437 253.885 26.4826 255.526C28.1214 257.167 29.0422 259.393 29.0423 261.714V261.999L6.59026 262L6.58984 252.963Z" fill="#010B13"/>
<path d="M3.98911 159.173C3.98911 159.173 0.971333 162.589 5.96831 175.906L5.08814 248.923L21.2818 248.607L24.8413 212.989L31.3222 161.013L3.98911 159.173Z" fill="#010B13"/>
<path d="M36.8759 169.268L36.6986 169.241C15.9825 166.077 0.349688 163.043 0.194198 163.013L0 162.975L5.43058 149.748C5.38768 148.366 4.21215 109.552 6.46249 98.4002C8.64097 87.6048 18.9096 85.8356 20.0797 85.6692L21.2547 81.7705L36.0988 89.5058L38.6877 98.4289L39.2136 122.885L36.8759 169.268Z" fill="#FFB6B6"/>
<path d="M45.8165 118.932C45.148 118.931 44.4867 119.07 43.8743 119.338C43.2618 119.606 42.7114 119.999 42.2577 120.49H17.3072L8.16797 122.438L9.66849 134.029L42.1794 127.027C42.7176 127.635 43.3996 128.099 44.163 128.376C44.9264 128.653 45.7469 128.734 46.5496 128.612C47.3523 128.49 48.1116 128.168 48.7582 127.676C49.4049 127.185 49.9182 126.538 50.2514 125.797C50.5845 125.055 50.7269 124.242 50.6655 123.431C50.6041 122.621 50.3409 121.838 49.8998 121.155C49.4588 120.473 48.854 119.912 48.1408 119.523C47.4275 119.135 46.6284 118.931 45.8165 118.932Z" fill="#9F616A"/>
<path d="M46.0323 77.3891C49.2178 71.5535 47.0762 64.2367 41.2489 61.0466C35.4217 57.8565 28.1154 60.0012 24.9299 65.8369C21.7444 71.6726 23.886 78.9894 29.7133 82.1794C35.5406 85.3695 42.8469 83.2248 46.0323 77.3891Z" fill="#9F616A"/>
<path d="M24.1725 61.9859L23.5895 60.8109L26.5228 59.3514C26.5228 59.3514 29.7587 54.0787 35.6142 55.5604C41.4696 57.0422 44.1041 57.929 44.1041 57.929L47.0299 59.4033L45.5615 60.8665L48.1959 61.7533L46.4359 62.629L48.4837 63.8077L47.3813 69.8502C47.3813 69.8502 45.5504 65.2672 42.0305 67.0186C38.5105 68.7699 32.0721 66.1132 32.0721 66.1132L26.4785 76.9542C26.4785 76.9542 25.3245 73.1539 23.267 74.1673C23.267 74.1673 18.0108 65.7843 24.1725 61.9859Z" fill="#010B13"/>
<path d="M9.82866 136.201L6.97534 127.702L6.28516 99.3686L7.50089 95.3486C7.93848 93.9018 8.66325 92.5583 9.63175 91.3987C10.6003 90.2391 11.7926 89.2872 13.1372 88.6001C14.4819 87.913 15.9512 87.5048 17.4572 87.4001C18.9631 87.2953 20.4747 87.4961 21.9013 87.9903C23.3279 88.4846 24.6402 89.2622 25.7595 90.2766C26.8789 91.291 27.7822 92.5212 28.4154 93.8935C29.0485 95.2659 29.3985 96.7521 29.4444 98.2632C29.4902 99.7742 29.231 101.279 28.6822 102.687L22.1659 119.409L22.4972 120.053L36.6146 119.939L41.6293 128.978L9.82866 136.201Z" fill="#FFB6B6"/>
<path d="M151.077 132.709C151.604 132.354 152.046 131.887 152.373 131.342C152.701 130.797 152.905 130.186 152.971 129.554C153.037 128.921 152.964 128.281 152.756 127.68C152.549 127.079 152.213 126.53 151.771 126.073L158.73 112.27L150.759 113.195L145.373 126.162C144.655 126.956 144.254 127.986 144.244 129.057C144.235 130.128 144.618 131.166 145.321 131.973C146.024 132.78 146.998 133.3 148.059 133.436C149.12 133.572 150.194 133.313 151.077 132.709Z" fill="#FFB7B7"/>
<path d="M206.884 230.488L200.612 230.487L197.629 206.263L206.885 206.264L206.884 230.488Z" fill="#FFB7B7"/>
<path d="M208.483 236.575L188.262 236.575V236.318C188.262 234.228 189.091 232.223 190.567 230.745C192.043 229.267 194.045 228.437 196.132 228.437H196.133L208.484 228.437L208.483 236.575Z" fill="#010B13"/>
<path d="M172.61 230.488L166.339 230.487L163.355 206.263L172.612 206.264L172.61 230.488Z" fill="#FFB7B7"/>
<path d="M172.675 236.575L152.453 236.575V236.318C152.453 234.228 153.283 232.223 154.759 230.745C156.235 229.267 158.236 228.437 160.324 228.437H160.324L172.675 228.437L172.675 236.575Z" fill="#010B13"/>
<path d="M172.097 128.175L165.958 142.337L160.895 223.737L173.683 223.225L177.176 184.421L187.95 149.86L194.144 188.39L196.702 222.201L207.284 222.659L211.501 128.175H172.097Z" fill="#010B13"/>
<path d="M202.781 58.293L184.99 58.7387L174.545 64.1086L173.972 103.727L167.457 131.08C167.457 131.08 208.161 133.885 213.788 129.787L207.138 98.5381L216.057 64.7671L202.781 58.293Z" fill="#512100"/>
<path d="M177.293 64.7647L175.637 63.6445C175.637 63.6445 168.775 65.704 166.747 74.8666C166.747 74.8666 165.195 79.4635 164.514 82.624C163.733 86.249 146.486 119.547 146.486 119.547L156.812 122.513L175.743 91.8545L177.293 64.7647Z" fill="#512100"/>
<path d="M215.777 137.789C215.368 137.302 215.071 136.731 214.907 136.117C214.742 135.502 214.714 134.859 214.825 134.233C214.936 133.606 215.182 133.012 215.547 132.491C215.912 131.97 216.386 131.536 216.937 131.219L214.049 116.028L221.455 119.119L223.062 133.07C223.533 134.032 223.635 135.133 223.35 136.165C223.064 137.197 222.41 138.089 221.512 138.67C220.614 139.252 219.534 139.483 218.477 139.321C217.42 139.159 216.459 138.613 215.777 137.789Z" fill="#FFB7B7"/>
<path d="M213.38 65.2404L215.281 64.6211C215.281 64.6211 221.309 68.4956 220.735 77.8629C220.735 77.8629 220.961 82.7102 220.746 85.9362C220.498 89.6364 223.815 126.406 223.815 126.406H213.073L208.469 93.108L213.38 65.2404Z" fill="#512100"/>
<path d="M207.149 41.6713C207.149 44.1141 206.425 46.502 205.07 48.5331C203.715 50.5642 201.789 52.1473 199.535 53.0821C197.282 54.0169 194.802 54.2615 192.41 53.7849C190.017 53.3084 187.82 52.1321 186.095 50.4048C184.37 48.6774 183.195 46.4767 182.719 44.0809C182.244 41.685 182.488 39.2017 183.421 36.9448C184.355 34.688 185.935 32.759 187.964 31.4019C189.992 30.0447 192.376 29.3204 194.816 29.3204C198.078 29.3122 201.211 30.6024 203.524 32.9071C205.837 35.2118 207.141 38.3423 207.149 41.6098C207.149 41.6303 207.149 41.6508 207.149 41.6713Z" fill="#FFB7B7"/>
<path d="M182.523 25.0816C183.968 21.9704 186.764 22.5855 189.209 23.6401C192.306 22.9523 195.251 20.893 198.587 22.1108C201.873 26.8976 212.907 25.4893 210.56 33.2821C210.557 35.1495 214.069 34.0626 213.455 37.1208C215.316 43.0064 206.741 54.1529 201.818 51.8056C203.035 49.5711 205.816 44.4957 201.598 43.9923C192.524 52.4477 200.662 27.8913 189.26 35.0327C185.485 38.4925 180.317 28.5423 182.523 25.0816Z" fill="#010B13"/>
<path d="M217.936 139.021C218.524 139.139 219.13 139.127 219.712 138.985C220.294 138.844 220.838 138.576 221.306 138.201C221.774 137.826 222.154 137.352 222.419 136.814C222.684 136.276 222.829 135.687 222.842 135.087L253.809 105.897L246.841 100.331L218.54 130.847C217.532 130.892 216.576 131.306 215.852 132.009C215.128 132.713 214.687 133.658 214.613 134.666C214.538 135.673 214.836 136.673 215.448 137.476C216.061 138.278 216.946 138.828 217.936 139.021Z" fill="#9F616A"/>
<path d="M249.421 110.615L243.397 103.544C243.225 103.343 243.099 103.107 243.027 102.853C242.955 102.598 242.938 102.331 242.978 102.07C243.018 101.809 243.114 101.559 243.26 101.338C243.405 101.117 243.596 100.93 243.82 100.79L251.663 95.8727C252.696 95.0001 254.032 94.5732 255.379 94.6857C256.725 94.7982 257.972 95.4409 258.846 96.4729C259.72 97.5049 260.15 98.8419 260.041 100.191C259.933 101.54 259.294 102.79 258.266 103.668L252.204 110.63C252.031 110.83 251.816 110.989 251.575 111.098C251.335 111.207 251.073 111.262 250.809 111.261C250.545 111.259 250.285 111.201 250.045 111.089C249.806 110.978 249.593 110.816 249.421 110.615Z" fill="#CBCBCB"/>
<path d="M233.221 254.65L225.649 254.65L222.047 225.403L233.222 225.404L233.221 254.65Z" fill="#9F616A"/>
<path d="M235.152 262L210.738 261.999V261.69C210.738 259.166 211.74 256.746 213.522 254.961C215.304 253.177 217.721 252.174 220.241 252.174H220.241L235.153 252.174L235.152 262Z" fill="#010B13"/>
<path d="M293.744 254.65L286.172 254.65L282.57 225.403L293.745 225.404L293.744 254.65Z" fill="#9F616A"/>
<path d="M295.676 262L271.262 261.999V261.69C271.262 259.166 272.263 256.746 274.045 254.961C275.827 253.177 278.244 252.174 280.764 252.174H280.765L295.676 252.174L295.676 262Z" fill="#010B13"/>
<path d="M273.378 126.118L281.01 97.88L271.109 92.3066H257.289L251.914 98.0658C251.914 98.0658 242.933 104.323 245.107 111.256L248.613 127.047L243.25 152.127L216.229 189.655L209.832 226.517L235.012 233.127L262.239 179.437L275.441 238.886L300 237.649L291.537 165.567C291.537 165.567 289.125 143.608 276.48 129.897L273.378 126.118Z" fill="#010B13"/>
<path d="M289.14 151.104C289.565 150.681 289.893 150.171 290.101 149.608C290.308 149.045 290.389 148.443 290.339 147.845C290.289 147.247 290.109 146.667 289.811 146.147C289.513 145.626 289.105 145.177 288.615 144.832L282.693 104.824L274.193 107.512L282.702 146.044C282.177 146.906 281.986 147.932 282.166 148.926C282.345 149.92 282.883 150.814 283.676 151.437C284.47 152.061 285.464 152.372 286.471 152.31C287.478 152.249 288.428 151.819 289.14 151.104Z" fill="#9F616A"/>
<path d="M284.155 111.103L274.935 112.168C274.673 112.198 274.407 112.171 274.156 112.089C273.905 112.007 273.674 111.872 273.48 111.693C273.285 111.514 273.132 111.295 273.03 111.051C272.928 110.807 272.879 110.544 272.888 110.28L273.186 101.018C273.039 99.673 273.431 98.3244 274.275 97.268C275.119 96.2116 276.347 95.5336 277.69 95.3826C279.033 95.2315 280.38 95.6198 281.438 96.4623C282.495 97.3048 283.175 98.5327 283.33 99.8769L285.72 108.798C285.788 109.054 285.801 109.321 285.757 109.582C285.713 109.842 285.613 110.091 285.465 110.309C285.316 110.528 285.122 110.712 284.896 110.849C284.671 110.986 284.418 111.073 284.155 111.103Z" fill="#CBCBCB"/>
<path d="M248.744 84.2759V72.3779C248.744 68.1495 250.421 64.0942 253.407 61.1043C256.393 58.1143 260.442 56.4346 264.665 56.4346C268.887 56.4346 272.936 58.1143 275.922 61.1043C278.908 64.0942 280.585 68.1495 280.585 72.3779V84.2759C280.584 84.8437 280.359 85.3881 279.958 85.7896C279.557 86.1911 279.013 86.4169 278.446 86.4175H250.883C250.316 86.4169 249.772 86.1911 249.371 85.7896C248.97 85.3881 248.745 84.8437 248.744 84.2759Z" fill="#010B13"/>
<path d="M266.992 84.7082C272.649 81.6117 274.727 74.5094 271.635 68.8448C268.543 63.1802 261.451 61.0984 255.795 64.195C250.138 67.2915 248.059 74.3938 251.151 80.0584C254.244 85.723 261.336 87.8048 266.992 84.7082Z" fill="#9F616A"/>
<path d="M244.977 73.3306C244.98 69.9869 246.308 66.7812 248.669 64.4169C251.03 62.0525 254.231 60.7225 257.57 60.7188H259.947C263.285 60.7225 266.487 62.0525 268.848 64.4169C271.208 66.7812 272.537 69.9869 272.54 73.3306V73.5686H267.519L265.806 68.7657L265.463 73.5686H262.868L262.004 71.1453L261.831 73.5686H244.977V73.3306Z" fill="#010B13"/>
<path d="M260.244 87.7556C260.008 87.4359 259.868 87.056 259.838 86.6597C259.808 86.2634 259.891 85.8667 260.077 85.5154C262.595 80.719 266.12 71.8564 261.441 66.3908L261.104 65.998H274.69V86.4245L262.348 88.6052C262.223 88.6273 262.097 88.6385 261.97 88.6386C261.633 88.6386 261.301 88.5586 261.001 88.4051C260.701 88.2516 260.441 88.029 260.244 87.7556Z" fill="#010B13"/>
<path d="M135.373 98.6332C135.2 98.8106 135.043 99.0013 134.9 99.2036L112.764 98.6612L110.182 93.9355L102.551 96.9063L106.311 105.717C106.614 106.429 107.14 107.023 107.81 107.41C108.479 107.797 109.256 107.955 110.023 107.863L135.033 104.837C135.623 105.585 136.426 106.135 137.336 106.415C138.246 106.694 139.219 106.69 140.127 106.402C141.034 106.114 141.832 105.556 142.415 104.803C142.998 104.05 143.339 103.136 143.391 102.185C143.443 101.233 143.204 100.288 142.707 99.4754C142.21 98.6627 141.477 98.0209 140.607 97.6354C139.736 97.2498 138.769 97.1388 137.834 97.3171C136.899 97.4953 136.041 97.9544 135.373 98.6332Z" fill="#FFB7B7"/>
<path d="M63.2122 233.26H70.4906L73.9531 205.146L63.2109 205.146L63.2122 233.26Z" fill="#FFB7B7"/>
<path d="M61.3555 230.88L75.6894 230.88H75.69C78.1126 230.88 80.436 231.844 82.149 233.559C83.8621 235.275 84.8245 237.602 84.8247 240.028V240.325L61.3559 240.326L61.3555 230.88Z" fill="#010B13"/>
<path d="M129.303 233.099L135.996 230.235L128.152 203.019L118.273 207.245L129.303 233.099Z" fill="#FFB7B7"/>
<path d="M126.662 231.64L139.844 226.001L139.844 226.001C142.072 225.048 144.587 225.02 146.835 225.924C149.083 226.828 150.881 228.589 151.833 230.82L151.949 231.093L130.368 240.326L126.662 231.64Z" fill="#010B13"/>
<path d="M98.5912 104.723L99.1174 113.264L83.7329 114.913L67.6348 116.639L72.3728 103.669L98.5912 104.723Z" fill="#FFB7B7"/>
<path d="M99.1309 107.788C98.9565 107.72 81.5796 100.951 70.9059 106.486L70.6434 106.622L68.5141 96.1258L67.3008 73.56L75.1959 69.824L77.3697 64.9478L92.1761 64.0703L95.2187 68.249L105.578 71.649L99.3867 107.89L99.1309 107.788Z" fill="#E4E4E4"/>
<path d="M99.6758 87.4191L101.507 73.0084L105.677 71.7373L105.748 71.7633C105.844 71.7987 108.11 72.6674 108.731 75.8095C109.326 78.8254 113.811 97.5935 113.856 97.7827L113.901 97.9705L103.364 102.192L99.6758 87.4191Z" fill="#E4E4E4"/>
<path d="M123.882 228.158L137.909 225.276L115.49 163.327L107.818 142.197C107.818 142.197 102.951 125.255 100.753 118.698L99.4259 109.901L68.0161 113.383C68.0161 113.383 59.2434 126.285 61.9085 147.315L60.7031 226.357L74.7296 227.077L86.4783 147.359L107.098 191.06C107.098 191.06 113.598 209.709 118.248 213.751L123.882 228.158Z" fill="#010B13"/>
<path d="M80.6116 116.316C80.3646 116.31 80.1175 116.324 79.8727 116.357L65.2194 99.7324L66.9239 94.623L59.5602 91.0391L55.6649 99.7906C55.3502 100.498 55.273 101.288 55.4449 102.042C55.6168 102.797 56.0285 103.476 56.6183 103.976L75.8379 120.285C75.6914 121.226 75.8346 122.191 76.2485 123.049C76.6625 123.907 77.3275 124.619 78.1552 125.089C78.9829 125.56 79.9341 125.767 80.8821 125.683C81.8301 125.599 82.7302 125.228 83.4625 124.619C84.1948 124.01 84.7246 123.192 84.9816 122.275C85.2385 121.357 85.2104 120.383 84.9009 119.481C84.5914 118.58 84.0153 117.794 83.2491 117.229C82.4828 116.664 81.5629 116.345 80.6116 116.316Z" fill="#FFB7B7"/>
<path d="M58.2344 93.5023L63.9629 77.1616C64.6067 75.2353 65.4135 74.065 66.3608 73.6832C66.5474 73.5991 66.7494 73.5547 66.9541 73.5528C67.1587 73.5509 67.3615 73.5915 67.5496 73.6721L70.1183 76.922L72.5024 86.9516L66.3898 101.351L58.2344 93.5023Z" fill="#E4E4E4"/>
<path d="M96.1523 60.6887H71.0039C70.4866 60.6881 69.9906 60.4821 69.6249 60.1158C69.2591 59.7495 69.0533 59.2528 69.0527 58.7348V47.8793C69.0527 44.0214 70.5831 40.3215 73.3071 37.5935C76.0311 34.8656 79.7257 33.333 83.5781 33.333C87.4305 33.333 91.1251 34.8656 93.8491 37.5935C96.5731 40.3215 98.1035 44.0214 98.1035 47.8793V58.7347C98.1029 59.2528 97.8971 59.7495 97.5313 60.1158C97.1656 60.4821 96.6696 60.6882 96.1523 60.6887Z" fill="#010B13"/>
<path d="M86.5636 60.4361C92.4451 60.4361 97.213 55.6613 97.213 49.7713C97.213 43.8813 92.4451 39.1064 86.5636 39.1064C80.682 39.1064 75.9141 43.8813 75.9141 49.7713C75.9141 55.6613 80.682 60.4361 86.5636 60.4361Z" fill="#FFB7B7"/>
<path d="M101.539 48.9641H86.1614L86.0037 46.7532L85.2152 48.9641H82.8474L82.5349 44.5821L80.9723 48.9641H76.3906V48.747C76.394 45.6963 77.6057 42.7715 79.7598 40.6143C81.9138 38.4571 84.8344 37.2437 87.8807 37.2402H90.0488C93.0951 37.2437 96.0157 38.4571 98.1698 40.6143C100.324 42.7715 101.536 45.6963 101.539 48.747L101.539 48.9641Z" fill="#010B13"/>
<path d="M86.0352 62.7153C85.9194 62.7152 85.8039 62.705 85.6899 62.6848L74.4297 60.6952V42.0586H86.825L86.5181 42.4169C82.2485 47.4036 85.4652 55.4897 87.7626 59.8658C87.9319 60.1863 88.0074 60.5482 87.9804 60.9098C87.9534 61.2713 87.8249 61.618 87.6098 61.9097C87.4297 62.1591 87.1931 62.3622 86.9193 62.5022C86.6456 62.6423 86.3426 62.7153 86.0352 62.7153Z" fill="#010B13"/>
<path d="M220.921 107.511C220.219 107.582 219.512 107.598 218.808 107.56C218.688 107.547 218.567 107.582 218.473 107.657C218.378 107.732 218.316 107.841 218.301 107.961L216.953 118.083C216.85 118.818 216.549 119.511 216.084 120.089C215.7 120.548 215.415 121.082 215.246 121.657C215.077 122.231 215.028 122.835 215.101 123.429V140.624C215.101 140.624 215.015 142.917 216.774 142.917C218.879 143.182 221.009 143.182 223.114 142.917C223.114 142.917 224.523 142.65 224.523 140.534V123.603C224.63 123.013 224.608 122.405 224.458 121.824C224.308 121.243 224.033 120.701 223.653 120.237C223.204 119.657 222.913 118.97 222.81 118.243L221.41 107.909C221.394 107.792 221.335 107.687 221.244 107.613C221.153 107.539 221.037 107.503 220.921 107.511Z" fill="white"/>
<path d="M219.938 143.405C218.874 143.405 217.811 143.339 216.755 143.207C216.519 143.213 216.285 143.169 216.066 143.08C215.848 142.99 215.65 142.857 215.486 142.687C214.77 141.942 214.81 140.667 214.812 140.613L214.812 123.447C214.737 122.816 214.792 122.176 214.972 121.567C215.153 120.957 215.455 120.391 215.862 119.903C216.292 119.367 216.57 118.724 216.666 118.043L218.014 107.923C218.04 107.728 218.141 107.551 218.295 107.43C218.449 107.308 218.644 107.252 218.84 107.272C219.524 107.308 220.21 107.292 220.892 107.222L220.9 107.222C221.09 107.208 221.278 107.267 221.427 107.387C221.575 107.508 221.672 107.68 221.697 107.869L223.097 118.204C223.194 118.88 223.464 119.519 223.882 120.059C224.285 120.552 224.577 121.126 224.737 121.742C224.898 122.358 224.923 123.002 224.813 123.629V140.534C224.813 142.863 223.185 143.199 223.168 143.202C222.097 143.337 221.018 143.405 219.938 143.405ZM218.769 107.849C218.726 107.847 218.683 107.861 218.65 107.888C218.617 107.916 218.595 107.955 218.588 107.998L217.241 118.122C217.13 118.909 216.808 119.652 216.309 120.271C215.951 120.701 215.685 121.2 215.526 121.737C215.368 122.274 215.321 122.838 215.389 123.394L215.391 123.429V140.624C215.391 140.646 215.36 141.721 215.905 142.286C216.018 142.401 216.153 142.49 216.303 142.549C216.453 142.608 216.613 142.634 216.774 142.627L216.81 142.629C218.891 142.891 220.997 142.891 223.078 142.629C223.106 142.622 224.233 142.365 224.233 140.534L224.238 123.551C224.338 123.002 224.318 122.437 224.178 121.897C224.038 121.356 223.783 120.853 223.429 120.421C222.946 119.8 222.634 119.063 222.523 118.284L221.123 107.948C221.117 107.905 221.095 107.867 221.062 107.839C221.029 107.812 220.987 107.798 220.945 107.8C220.23 107.872 219.51 107.889 218.792 107.85C218.785 107.849 218.777 107.849 218.769 107.849Z" fill="#FFB6B6"/>
<path d="M218.792 123.737H220.928C221.777 123.737 222.592 124.075 223.192 124.677C223.793 125.278 224.13 126.094 224.13 126.944V134.992C224.13 135.842 223.793 136.658 223.192 137.259C222.592 137.861 221.777 138.199 220.928 138.199H218.792C217.943 138.199 217.128 137.861 216.528 137.259C215.927 136.658 215.59 135.842 215.59 134.992V126.944C215.59 126.094 215.927 125.278 216.528 124.677C217.128 124.075 217.943 123.737 218.792 123.737Z" fill="#512100"/>
<path d="M148.442 93.5696C147.74 93.6404 147.034 93.6569 146.329 93.6189C146.209 93.6058 146.089 93.6404 145.994 93.7153C145.899 93.7902 145.838 93.8994 145.822 94.0194L144.475 104.142C144.371 104.877 144.071 105.57 143.605 106.147C143.222 106.607 142.937 107.141 142.768 107.715C142.599 108.29 142.549 108.893 142.623 109.488V126.683C142.623 126.683 142.536 128.975 144.295 128.975C146.4 129.24 148.531 129.24 150.636 128.975C150.636 128.975 152.044 128.708 152.044 126.593V109.662C152.152 109.071 152.13 108.464 151.979 107.883C151.829 107.301 151.555 106.76 151.175 106.295C150.725 105.716 150.434 105.028 150.332 104.302L148.932 93.9672C148.916 93.851 148.856 93.7452 148.765 93.6714C148.675 93.5975 148.559 93.5611 148.442 93.5696Z" fill="white"/>
<path d="M147.459 129.463C146.395 129.463 145.332 129.397 144.276 129.265C144.041 129.27 143.806 129.227 143.588 129.137C143.369 129.048 143.172 128.914 143.007 128.745C142.292 128 142.331 126.725 142.333 126.671L142.333 109.505C142.259 108.873 142.313 108.234 142.494 107.624C142.674 107.015 142.977 106.449 143.383 105.96C143.814 105.425 144.092 104.782 144.188 104.101L145.535 93.9802C145.561 93.7855 145.662 93.6088 145.816 93.4873C145.971 93.3659 146.166 93.3093 146.361 93.3296C147.045 93.3658 147.731 93.3492 148.413 93.28L148.421 93.2793C148.611 93.2655 148.8 93.3247 148.948 93.445C149.096 93.5653 149.193 93.7376 149.219 93.9269L150.619 104.262C150.715 104.938 150.986 105.577 151.404 106.116C151.806 106.609 152.098 107.183 152.259 107.8C152.419 108.416 152.445 109.06 152.334 109.687V126.592C152.334 128.921 150.706 129.257 150.69 129.26C149.618 129.395 148.539 129.463 147.459 129.463ZM146.29 93.9066C146.247 93.9046 146.205 93.9186 146.171 93.9461C146.138 93.9735 146.116 94.0124 146.11 94.0551L144.762 104.18C144.651 104.967 144.329 105.71 143.831 106.329C143.473 106.759 143.206 107.257 143.048 107.794C142.89 108.331 142.843 108.895 142.911 109.451L142.913 109.487V126.682C142.912 126.703 142.881 127.779 143.426 128.343C143.539 128.458 143.675 128.548 143.824 128.607C143.974 128.666 144.135 128.692 144.295 128.684L144.331 128.687C146.413 128.948 148.518 128.948 150.6 128.687C150.627 128.68 151.754 128.422 151.754 126.592L151.759 109.609C151.859 109.06 151.839 108.495 151.7 107.954C151.56 107.414 151.304 106.91 150.951 106.478C150.468 105.857 150.156 105.121 150.045 104.342L148.645 94.0053C148.639 93.9629 148.617 93.9243 148.584 93.8971C148.551 93.8698 148.509 93.8559 148.466 93.858C147.751 93.9297 147.032 93.9464 146.314 93.9079C146.306 93.9071 146.298 93.9067 146.29 93.9066Z" fill="#FFB6B6"/>
<path d="M146.316 109.795H148.451C149.301 109.795 150.115 110.133 150.716 110.734C151.316 111.336 151.654 112.151 151.654 113.002V121.049C151.654 121.9 151.316 122.716 150.716 123.317C150.115 123.918 149.301 124.256 148.451 124.256H146.316C145.466 124.256 144.652 123.918 144.051 123.317C143.451 122.716 143.113 121.9 143.113 121.049V113.002C143.113 112.151 143.451 111.336 144.051 110.734C144.652 110.133 145.466 109.795 146.316 109.795Z" fill="#512100"/>
<path d="M136.159 78.8069C135.457 78.8777 134.751 78.8942 134.046 78.8562C133.926 78.8431 133.806 78.8777 133.711 78.9526C133.616 79.0275 133.554 79.1367 133.539 79.2567L132.192 89.3793C132.088 90.1141 131.787 90.8071 131.322 91.3847C130.939 91.8443 130.653 92.378 130.484 92.9526C130.315 93.5272 130.266 94.1305 130.34 94.725V111.92C130.34 111.92 130.253 114.213 132.012 114.213C134.117 114.478 136.247 114.478 138.353 114.213C138.353 114.213 139.761 113.946 139.761 111.83V94.8991C139.868 94.3084 139.846 93.7014 139.696 93.1201C139.546 92.5388 139.272 91.9971 138.892 91.5327C138.442 90.953 138.151 90.2657 138.048 89.5389L136.649 79.2045C136.633 79.0883 136.573 78.9825 136.482 78.9087C136.391 78.8348 136.276 78.7984 136.159 78.8069Z" fill="white"/>
<path d="M135.176 114.701C134.112 114.701 133.049 114.635 131.993 114.503C131.757 114.509 131.523 114.465 131.304 114.376C131.086 114.286 130.889 114.152 130.724 113.983C130.008 113.238 130.048 111.963 130.05 111.909L130.05 94.7428C129.975 94.1117 130.03 93.4719 130.21 92.8625C130.391 92.2532 130.694 91.6871 131.1 91.1988C131.531 90.6628 131.809 90.0202 131.905 89.3389L133.252 79.2185C133.278 79.0238 133.379 78.847 133.533 78.7256C133.687 78.6042 133.883 78.5476 134.078 78.5679C134.762 78.604 135.448 78.5875 136.13 78.5183L136.138 78.5176C136.328 78.5038 136.517 78.563 136.665 78.6833C136.813 78.8036 136.91 78.9759 136.936 79.1652L138.336 89.5002C138.432 90.1761 138.702 90.8153 139.12 91.3547C139.523 91.8475 139.815 92.4217 139.975 93.038C140.136 93.6542 140.162 94.2979 140.051 94.9251V111.83C140.051 114.159 138.423 114.495 138.407 114.498C137.335 114.633 136.256 114.701 135.176 114.701ZM134.007 79.1449C133.964 79.1429 133.921 79.1569 133.888 79.1844C133.855 79.2118 133.833 79.2507 133.827 79.2934L132.479 89.4178C132.368 90.2053 132.046 90.948 131.548 91.5671C131.189 91.9969 130.923 92.4957 130.765 93.0328C130.606 93.5698 130.56 94.1336 130.627 94.6894L130.63 94.7251V111.92C130.629 111.942 130.598 113.017 131.143 113.582C131.256 113.697 131.391 113.786 131.541 113.845C131.691 113.904 131.851 113.93 132.012 113.923L132.048 113.925C134.129 114.187 136.235 114.187 138.316 113.925C138.344 113.918 139.471 113.661 139.471 111.83L139.476 94.8473C139.576 94.298 139.556 93.7334 139.416 93.1927C139.277 92.6521 139.021 92.1484 138.667 91.7167C138.185 91.0956 137.872 90.359 137.762 89.5798L136.362 79.2435C136.355 79.2012 136.334 79.1626 136.301 79.1353C136.268 79.1081 136.226 79.0942 136.183 79.0963C135.468 79.168 134.748 79.1846 134.031 79.1462C134.023 79.1454 134.015 79.1449 134.007 79.1449Z" fill="#FFB6B6"/>
<path d="M134.032 95.0322H136.168C137.017 95.0322 137.832 95.3701 138.432 95.9715C139.033 96.5729 139.37 97.3886 139.37 98.2391V106.287C139.37 107.137 139.033 107.953 138.432 108.554C137.832 109.156 137.017 109.493 136.168 109.493H134.032C133.183 109.493 132.369 109.156 131.768 108.554C131.167 107.953 130.83 107.137 130.83 106.287V98.2391C130.83 97.3886 131.167 96.5729 131.768 95.9715C132.369 95.3701 133.183 95.0322 134.032 95.0322Z" fill="#512100"/>
<path d="M23.0084 29.1146C28.6621 29.1146 33.2453 24.5248 33.2453 18.863C33.2453 13.2012 28.6621 8.61133 23.0084 8.61133C17.3547 8.61133 12.7715 13.2012 12.7715 18.863C12.7715 24.5248 17.3547 29.1146 23.0084 29.1146Z" fill="#F0F0F0"/>
<path d="M258.866 20.5033C264.52 20.5033 269.103 15.9135 269.103 10.2517C269.103 4.58982 264.52 0 258.866 0C253.212 0 248.629 4.58982 248.629 10.2517C248.629 15.9135 253.212 20.5033 258.866 20.5033Z" fill="#F0F0F0"/>
<path d="M141.755 46.3376C145.826 46.3376 149.126 43.0329 149.126 38.9564C149.126 34.8799 145.826 31.5752 141.755 31.5752C137.685 31.5752 134.385 34.8799 134.385 38.9564C134.385 43.0329 137.685 46.3376 141.755 46.3376Z" fill="#F0F0F0"/>
</g>
<defs>
<clipPath id="clip0_249_478">
<rect width="300" height="262" fill="white"/>
</clipPath>
</defs>
</svg>
