<svg width="300" height="269" viewBox="0 0 300 269" fill="none" xmlns="http://www.w3.org/2000/svg">
<g clip-path="url(#clip0_261_382)">
<path d="M1.68049 60.3604C1.09304 60.526 0.595117 60.9184 0.295944 61.4514C-0.00322944 61.9845 -0.0792251 62.6147 0.0846313 63.2039L38.5639 200.932C38.7291 201.52 39.1206 202.019 39.6525 202.319C40.1843 202.619 40.8131 202.695 41.401 202.531L183.255 162.722C183.842 162.557 184.34 162.164 184.639 161.631C184.939 161.098 185.015 160.468 184.851 159.879L146.372 22.151C146.206 21.5623 145.815 21.0632 145.283 20.7634C144.751 20.4636 144.122 20.3874 143.534 20.5516L1.68049 60.3604Z" fill="#E6E6E6"/>
<path d="M43.1841 196.028L178.362 158.093L141.752 27.0557L6.57422 64.9909L43.1841 196.028Z" fill="white"/>
<path d="M24.4465 82.4876C23.5447 82.7407 23.1728 84.2422 23.6177 85.8345C24.0625 87.4268 25.1583 88.5164 26.0602 88.2633L87.7128 70.9616C88.6147 70.7085 88.9865 69.207 88.5417 67.6147C88.0968 66.0224 87.0011 64.9328 86.0992 65.1859L24.4465 82.4876Z" fill="#E6E6E6"/>
<path d="M29.4114 100.259C28.5095 100.512 28.1377 102.014 28.5825 103.606C29.0274 105.198 30.1231 106.288 31.025 106.035L92.6776 88.7331C93.5795 88.48 93.9514 86.9785 93.5065 85.3862C93.0616 83.7939 91.9659 82.7043 91.064 82.9574L29.4114 100.259Z" fill="#E6E6E6"/>
<path d="M34.3196 117.826C33.4177 118.079 33.0459 119.58 33.4907 121.172C33.9356 122.765 35.0313 123.854 35.9332 123.601L97.5859 106.299C98.4877 106.046 98.8596 104.545 98.4147 102.953C97.9698 101.36 96.8741 100.271 95.9722 100.524L34.3196 117.826Z" fill="#E6E6E6"/>
<path d="M39.2844 135.597C38.3825 135.85 38.0107 137.352 38.4556 138.944C38.9004 140.536 39.9962 141.626 40.8981 141.373L102.551 124.071C103.453 123.818 103.824 122.316 103.38 120.724C102.935 119.132 101.839 118.042 100.937 118.295L39.2844 135.597Z" fill="#E6E6E6"/>
<path d="M117.388 56.6112C117.009 56.717 116.655 56.8966 116.345 57.1398C116.036 57.3829 115.777 57.6848 115.584 58.0282C115.391 58.3716 115.268 58.7497 115.221 59.141C115.174 59.5323 115.204 59.929 115.31 60.3086C115.416 60.6881 115.596 61.0429 115.839 61.3528C116.082 61.6627 116.383 61.9215 116.726 62.1146C117.069 62.3076 117.446 62.431 117.837 62.4777C118.227 62.5244 118.623 62.4935 119.002 62.3868L130.527 59.1524C131.291 58.9379 131.939 58.428 132.328 57.7348C132.717 57.0415 132.816 56.2218 132.602 55.4559C132.388 54.69 131.879 54.0407 131.187 53.6508C130.496 53.2608 129.678 53.1622 128.914 53.3767L117.388 56.6112Z" fill="#E6E6E6"/>
<path d="M122.255 74.0379C121.876 74.1438 121.522 74.3234 121.213 74.5665C120.903 74.8097 120.644 75.1116 120.452 75.455C120.259 75.7983 120.135 76.1765 120.088 76.5678C120.041 76.9591 120.071 77.3558 120.177 77.7353C120.283 78.1148 120.463 78.4697 120.706 78.7796C120.949 79.0895 121.25 79.3483 121.593 79.5413C121.936 79.7343 122.313 79.8577 122.704 79.9044C123.094 79.9512 123.49 79.9203 123.869 79.8136L135.394 76.5791C136.159 76.3647 136.807 75.8547 137.196 75.1615C137.585 74.4683 137.683 73.6486 137.469 72.8827C137.255 72.1168 136.746 71.4674 136.055 71.0775C135.363 70.6876 134.545 70.589 133.781 70.8035L122.255 74.0379Z" fill="#E6E6E6"/>
<path d="M127.125 91.4647C126.746 91.5709 126.393 91.7507 126.084 91.994C125.775 92.2372 125.516 92.539 125.324 92.8823C125.131 93.2255 125.008 93.6035 124.961 93.9945C124.914 94.3855 124.944 94.7819 125.05 95.1611C125.156 95.5404 125.336 95.895 125.578 96.2047C125.821 96.5144 126.122 96.7732 126.465 96.9663C126.807 97.1594 127.184 97.283 127.574 97.33C127.965 97.377 128.36 97.3465 128.738 97.2404L140.264 94.0059C141.028 93.7914 141.676 93.2815 142.065 92.5883C142.454 91.8951 142.553 91.0753 142.339 90.3094C142.125 89.5435 141.616 88.8942 140.924 88.5043C140.233 88.1143 139.415 88.0158 138.65 88.2302L127.125 91.4647Z" fill="#E6E6E6"/>
<path d="M131.995 108.892C131.231 109.107 130.584 109.617 130.196 110.31C129.808 111.003 129.71 111.822 129.923 112.587C130.137 113.352 130.645 114.001 131.336 114.391C132.027 114.781 132.844 114.881 133.608 114.667L145.134 111.433C145.897 111.218 146.544 110.707 146.933 110.015C147.321 109.322 147.419 108.502 147.205 107.737C146.991 106.972 146.483 106.323 145.792 105.933C145.101 105.543 144.284 105.444 143.52 105.657L131.995 108.892Z" fill="#E6E6E6"/>
<path d="M136.646 139.098C136.164 139.233 135.712 139.462 135.318 139.771C134.924 140.081 134.594 140.466 134.348 140.904C134.102 141.341 133.945 141.823 133.885 142.321C133.825 142.82 133.864 143.326 133.999 143.809C134.134 144.293 134.363 144.745 134.672 145.14C134.982 145.535 135.366 145.864 135.803 146.11C136.24 146.356 136.721 146.514 137.218 146.573C137.716 146.633 138.22 146.593 138.702 146.457L153.389 142.336C154.362 142.063 155.188 141.413 155.684 140.53C156.179 139.646 156.305 138.602 156.032 137.626C155.759 136.65 155.111 135.823 154.23 135.326C153.348 134.829 152.306 134.703 151.332 134.977L136.646 139.098Z" fill="#FFB7B7"/>
<path d="M151.759 124.235L43.084 154.732L43.3545 155.701L152.03 125.203L151.759 124.235Z" fill="#E6E6E6"/>
<path d="M260.923 254.4L252.207 256.512L239.932 223.824L252.796 220.707L260.923 254.4Z" fill="#A0616A"/>
<path d="M237.169 269L237.11 268.756C236.419 265.878 236.896 262.843 238.435 260.317C239.974 257.791 242.45 255.98 245.32 255.281L262.373 251.149L265.049 262.245L237.169 269Z" fill="#2F2E41"/>
<path d="M222.338 260.352L213.371 260.351L209.105 225.688L222.34 225.688L222.338 260.352Z" fill="#A0616A"/>
<path d="M224.51 268.948L195.826 268.947V268.696C195.826 265.735 197 262.896 199.089 260.802C201.178 258.708 204.011 257.532 206.965 257.532H206.966L224.51 257.533L224.51 268.948Z" fill="#2F2E41"/>
<path d="M209.097 246.819L200.391 142.826L236.432 136.167L236.574 136.142L247.123 142.938L243.452 181.21L260.357 240.88L245.76 244.729L228.828 189.39L224.953 172.561L222.967 194.429L224.441 248.357L209.097 246.819Z" fill="#2F2E41"/>
<path d="M199.275 145.184L199.18 145.063L211.634 51.0802L211.65 50.957L211.738 50.869C211.922 50.685 216.285 46.3633 220.774 46.3633C221.422 46.3633 222.039 46.3469 222.631 46.3318C226.066 46.2423 228.779 46.1708 232.003 49.4029C235.289 52.6951 246.007 64.7173 246.007 81.1829C246.007 97.1202 247.455 146.648 247.47 147.146L247.491 147.846L246.905 147.464C246.761 147.371 232.344 138.171 220.253 146.723C216.475 149.396 213.08 150.333 210.178 150.333C203.422 150.333 199.333 145.258 199.275 145.184Z" fill="#FFB7B7"/>
<path d="M227.485 38.6094C236.19 33.8399 239.39 22.9005 234.631 14.1755C229.872 5.4505 218.957 2.24395 210.251 7.01346C201.546 11.783 198.346 22.7224 203.105 31.4474C207.864 40.1724 218.779 43.3789 227.485 38.6094Z" fill="#A0616A"/>
<path d="M191.367 165.382C192.216 164.722 192.912 163.883 193.403 162.925C193.895 161.966 194.17 160.911 194.211 159.834C194.252 158.758 194.056 157.685 193.639 156.692C193.221 155.699 192.591 154.81 191.793 154.087L201.995 129.97L188.637 132.434L180.997 154.958C179.875 156.382 179.312 158.168 179.417 159.98C179.521 161.791 180.284 163.501 181.562 164.786C182.84 166.071 184.544 166.841 186.351 166.951C188.158 167.061 189.943 166.503 191.367 165.382Z" fill="#A0616A"/>
<path d="M181.512 146.622L184.797 139.671C184.594 139.549 184.426 139.375 184.312 139.167C181.242 133.836 199.782 89.5651 201.017 86.6286C200.829 85.0315 198.883 68.1071 200.306 62.4024C201.981 55.6868 205.421 52.5571 211.807 51.9372C218.85 51.2743 220.75 60.8597 220.768 60.957L220.775 85.5992L212.692 113.965L194.258 151.654L181.512 146.622Z" fill="#FFB7B7"/>
<path d="M221.164 29.5942C219.01 29.875 217.386 27.6668 216.633 25.6255C215.879 23.5843 215.305 21.2078 213.433 20.1051C210.875 18.5987 207.602 20.4105 204.677 19.9135C201.374 19.3522 199.226 15.8435 199.057 12.4897C198.889 9.13592 200.221 5.91033 201.527 2.8182L201.984 6.66102C201.923 5.35859 202.196 4.06226 202.778 2.89602C203.36 1.72978 204.23 0.732651 205.306 0L204.718 5.63875C205.087 2.47978 208.483 0.0320072 211.588 0.686644L211.496 4.04641C215.311 3.59171 219.16 3.13637 222.986 3.48278C226.813 3.8292 230.667 5.04265 233.567 7.56845C237.905 11.3467 239.49 17.5679 238.958 23.3035C238.426 29.0391 236.064 34.4272 233.601 39.6322C232.982 40.9418 232.125 42.4196 230.689 42.5864C229.398 42.7363 228.217 41.6549 227.816 40.4164C227.415 39.1778 227.61 37.8322 227.851 36.5525C228.214 34.6192 228.671 32.6432 228.33 30.706C227.989 28.7688 226.598 26.8544 224.65 26.617C222.701 26.3796 220.707 28.6118 221.644 30.3405L221.164 29.5942Z" fill="#2F2E41"/>
<path d="M299.809 268.988H170.533V267.93H300.001L299.809 268.988Z" fill="#3F3D56"/>
</g>
<defs>
<clipPath id="clip0_261_382">
<rect width="300" height="269" fill="white"/>
</clipPath>
</defs>
</svg>
